PathFileType	4	(X/Y/Z)	D:\Research_projects\MuscleProsody\BulkSports2Dtrack\RetrackedSports2D\p1_sample60_cam2\p1_sample60_cam2_Sports2D\p1_sample60_cam2_Sports2D_m_person00.trc
DataRate	CameraRate	NumFrames	NumMarkers	Units	OrigDataRate	OrigDataStartFrame	OrigNumFrames
60	60	9	22	m	60	97	780
Frame#	Time	Hip			RHip			RKnee			RAnkle			RBigToe			RSmallToe			RHeel			LHip			LKnee			LAnkle			LBigToe			LSmallToe			LHeel			Neck			Head			Nose			RShoulder			RElbow			RWrist			LShoulder			LElbow			LWrist		
		X1	Y1	Z1	X2	Y2	Z2	X3	Y3	Z3	X4	Y4	Z4	X5	Y5	Z5	X6	Y6	Z6	X7	Y7	Z7	X8	Y8	Z8	X9	Y9	Z9	X10	Y10	Z10	X11	Y11	Z11	X12	Y12	Z12	X13	Y13	Z13	X14	Y14	Z14	X15	Y15	Z15	X16	Y16	Z16	X17	Y17	Z17	X18	Y18	Z18	X19	Y19	Z19	X20	Y20	Z20	X21	Y21	Z21	X22	Y22	Z22
97	1.6166666666666667	0.8306012993413547	0.859616836878572	0.0301	0.7330613363596267	0.8391878101222887	0.0301	0.7446292668154252	0.4460747682255338	0.129	0.7661014806787698	0.14115253359806612	0.023	0.7803958337566017	-0.0015849179800053075	0.2179	0.7166632054925349	0.0176271191272969	0.1804	0.7813781885033468	0.11256571555377973	-0.0119	0.9290987429044673	0.8380996660680211	0.0301	0.9178901382128803	0.4527771370227776	0.129	0.9155077020488759	0.1348708596172739	0.023	0.9062811933327235	0.006766999779457052	0.2179	0.9658057315684223	0.026341240438003212	0.1804	0.9013661252000946	0.1061323999458751	-0.0119	0.8437791169475238	1.507474332330082	0.0008	0.8359770942166171	1.786027727945282	0.0655	0.8118842769510828	1.6389604050645938	0.1076	0.6681987425687057	1.3870141888976562	-0.01275	0.5576188470853155	1.1570927242912605	0.0702	0.5763696288142479	1.1077885781071237	0.1076	1.0286507383857846	1.3913415120772004	-0.01275	1.0761719944895232	1.1140545779631368	0.0702	1.102180192537798	0.8634938173649996	0.1076
98	1.6333333333333333	0.8305814381994591	0.8603694908895103	0.0301	0.7331404572417668	0.8406768455733229	0.0301	0.7446362897387778	0.4467957385140803	0.129	0.7659706459000347	0.14013775965071784	0.023	0.7803607315226921	-0.0012647501315373399	0.2179	0.7166117958879895	0.017720588202496453	0.1804	0.7813347222998386	0.11124387958197915	-0.0119	0.9290006486350711	0.8394915156296675	0.0301	0.9179359207767928	0.4533784219832158	0.129	0.9157048830984643	0.13455769547787186	0.023	0.9065778251780516	0.006724243878551538	0.2179	0.9658554762063013	0.026379882669490436	0.1804	0.9014876815008933	0.10584218450609537	-0.0119	0.8433229522485812	1.5080733402207611	0.0008	0.8360635738022779	1.786165995633075	0.0655	0.8117029404788443	1.639258607997383	0.1076	0.6674729392130361	1.3872962965826596	-0.01275	0.5504083502485433	1.158773275226025	0.0702	0.5780493268101574	1.1056753221294926	0.1076	1.0280510401285494	1.3917859556151244	-0.01275	1.0777335970902828	1.117779874265998	0.0702	1.104789356644194	0.8727076118352075	0.1076
99	1.65	0.8304786884349056	0.8611967222666406	0.0301	0.7331666296751245	0.8421243296989891	0.0301	0.744603718767746	0.4475701708782587	0.129	0.7658792628685871	0.13919986347858623	0.023	0.7801109663024345	-0.0008206369878502102	0.2179	0.7164754660770206	0.017939141831544977	0.1804	0.7813921023239666	0.1098732235846406	-0.0119	0.9287661695501742	0.8408785590356307	0.0301	0.9178605969973113	0.4539347464238772	0.129	0.9159192178032923	0.13451410729580204	0.023	0.9068391167695786	0.006644765374521899	0.2179	0.9659345182547195	0.026281327230254586	0.1804	0.901747907146044	0.10571526693680892	-0.0119	0.842803721331423	1.5084560152731568	0.0008	0.8361058330363677	1.78619456225162	0.0655	0.8113953210645091	1.6394553858835583	0.1076	0.6667826645144196	1.387745687788597	-0.01275	0.5426612394400931	1.161020041148878	0.0702	0.5781804485954122	1.107397939567714	0.1076	1.0273441020246263	1.3923786056436922	-0.01275	1.0798846202071342	1.1224171099586702	0.0702	1.1094970346317754	0.8850566155501678	0.1076
100	1.6666666666666667	0.8303012259572136	0.8620643229784009	0.0301	0.7331369588850873	0.8435168581853939	0.0301	0.744496135075147	0.4483663698639029	0.129	0.7658325267093162	0.13840038137961447	0.023	0.7796536970656808	-0.00027184869413289904	0.2179	0.7162444616217943	0.018275935578178318	0.1804	0.7815331999533205	0.10854426521723773	-0.0119	0.9284019415865691	0.8422360118567829	0.0301	0.917646845709673	0.45443442747851837	0.129	0.9161483005683142	0.1347689488980105	0.023	0.9070180003752149	0.006526707027046012	0.2179	0.9660151120314433	0.026032458471458155	0.1804	0.9021644290565713	0.10579352205682302	-0.0119	0.8422555902761434	1.508617003319344	0.0008	0.8361012857962923	1.7860954400003146	0.0655	0.810987540144099	1.6395460580647283	0.1076	0.6661982410294025	1.388352338651412	-0.01275	0.5347464083991471	1.1641275779735512	0.0702	0.5761355066495497	1.1125774134980733	0.1076	1.026547961442364	1.393103083999538	-0.01275	1.0828032374803742	1.1279481418362054	0.0702	1.1168357357295238	0.9007498690552594	0.1076
101	1.6833333333333333	0.8300609812025663	0.862938806486267	0.0301	0.7330529096336498	0.8448474326569874	0.0301	0.7442883603725962	0.4491401133690091	0.129	0.7658267774469599	0.13776580273279443	0.023	0.7790193583285229	0.00034911785843046405	0.2179	0.7159164928651555	0.018697550766276307	0.1804	0.7817022473118028	0.10732696702407409	-0.0119	0.9279373059685733	0.8435460207950418	0.0301	0.917297375755877	0.45486642573450076	0.129	0.9163753593265189	0.13529395118701718	0.023	0.9070795761978951	0.0063671673625333765	0.2179	0.9660726854102534	0.02564238423927992	0.1804	0.9027223311453291	0.1060827624854174	-0.0119	0.8417043771458022	1.5085746144780872	0.0008	0.8360547667044581	1.7858660134042594	0.0655	0.8104982262717787	1.6395440471718203	0.1076	0.6657614119661104	1.3890879540603527	-0.01275	0.526979103043203	1.1682160431638053	0.0702	0.5714696032539044	1.1206421708454042	0.1076	1.0256986947355287	1.3939428445066913	-0.01275	1.0866848104688889	1.1343070921765042	0.0702	1.127281701628131	0.9198453277856277	0.1076
102	1.7	0.829772594977512	0.863790120363439	0.0301	0.7329213059390998	0.8461197691827468	0.0301	0.7439694086354653	0.4498562949949126	0.129	0.7658478897086421	0.13728420455211288	0.023	0.7782438981147084	0.0010072292481979129	0.2179	0.7154896205056581	0.019155923703655053	0.1804	0.7818193081002404	0.10624773873916973	-0.0119	0.927410871399768	0.8448065688253801	0.0301	0.9168341879727963	0.45522406046475705	0.129	0.9165767764048519	0.1360097728477897	0.023	0.9070095415729925	0.006159545827297855	0.2179	0.9660885541052286	0.0251259546861211	0.1804	0.903388117084863	0.1065480498669809	-0.0119	0.8411669237576123	1.5083698427620174	0.0008	0.8359653261882275	1.7855349179078888	0.0655	0.8099311110517837	1.6394687698114827	0.1076	0.6654829498426272	1.3899066293800344	-0.01275	0.5196355605833368	1.1732338215416245	0.0702	0.5639525178297127	1.1308883579060913	0.1076	1.0248502652909703	1.3948943425246123	-0.01275	1.0917327409157596	1.14141878103971	0.0702	1.141181019655782	0.9422587687681551	0.1076
103	1.7166666666666666	0.8294595454917245	0.8645937008594301	0.0301	0.7327558025534465	0.8473421489076335	0.0301	0.7435427384733585	0.4504997539842832	0.129	0.765875798523227	0.13690353206196157	0.023	0.777377951678132	0.001661286605581852	0.2179	0.7149766014208015	0.01959150039214632	0.1804	0.7818040559070284	0.10528819303584355	-0.0119	0.9268614873418926	0.8460241153564367	0.0301	0.9162884782716315	0.45550855750695857	0.129	0.9167277474833144	0.1368084997443473	0.023	0.9068218999167561	0.00590457434793459	0.2179	0.9660645404275028	0.02451138151607462	0.1804	0.9041214666948593	0.10713060928497015	-0.0119	0.8406437227029627	1.5080502417203616	0.0008	0.8358103155160412	1.7851528500352716	0.0655	0.8092762094043363	1.6393336654220603	0.1076	0.6653363858130267	1.3907433817062458	-0.01275	0.5129666577655869	1.178982358003636	0.0702	0.5535636806341171	1.1425289134145427	0.1076	1.0240701854677057	1.3959642779586272	-0.01275	1.09813109962659	1.1492312269366176	0.0702	1.1586805595874805	0.9677710767300888	0.1076
104	1.7333333333333334	0.8291554360805843	0.8653380041688452	0.0301	0.7325714593209949	0.8485197211930728	0.0301	0.7430307977058761	0.4510706683521797	0.129	0.7658867008314791	0.13654203781015178	0.023	0.7764938956398264	0.0022571016924482217	0.2179	0.7144130720420977	0.01993242705701052	0.1804	0.7815972789337342	0.10439643144181457	-0.0119	0.9263243913797591	0.8472048793039968	0.0301	0.9156900326978116	0.45573158654380674	0.129	0.9168085793323443	0.13758791462469558	0.023	0.9065587649273279	0.005626228615032538	0.2179	0.9660312094496545	0.023857465468164498	0.1804	0.9048755219693431	0.10777660127839085	-0.0119	0.840113170653448	1.5076498556415323	0.0008	0.8355353919028128	1.7847673137415374	0.0655	0.8085175005756946	1.6391389889827466	0.1076	0.6652558562608796	1.3915140868017868	-0.01275	0.5071945127704636	1.1851360765123897	0.0702	0.540474333582385	1.1547351978641116	0.1076	1.023425961634184	1.3971571926695612	-0.01275	1.1060144015784736	1.1577304735247784	0.0702	1.17968948527806	0.9960576323303978	0.1076
105	1.75	0.8288989260579366	0.8660308824246395	0.0301	0.7323775784605576	0.8496618804684376	0.0301	0.7424765279836776	0.4515801644514972	0.129	0.7658575784514041	0.13611555828120128	0.023	0.7756606448681603	0.0027380492232566365	0.2179	0.7138403640611393	0.02011482449077735	0.1804	0.781178133473579	0.10350576840137196	-0.0119	0.9258306831820915	0.8483635251131962	0.0301	0.9150655916213707	0.45591604963356885	0.129	0.9168152376666168	0.13827293898588863	0.023	0.9062756565732655	0.005372520297696241	0.2179	0.9660363341376093	0.02324461074978242	0.1804	0.9056050690652436	0.10844490851333452	-0.0119	0.8395391964726956	1.5071938049671738	0.0008	0.8350588427522087	1.7844171570633283	0.0655	0.8076346676884948	1.6388787697007965	0.1076	0.6651516200895699	1.392123194772754	-0.01275	0.5024931124635198	1.191263382202173	0.0702	0.5250021873279095	1.1666819304871834	0.1076	1.0229657636058214	1.398472643333871	-0.01275	1.1154455793088012	1.16693615980939	0.0702	1.2038714192688642	1.026741625543872	0.1076
